<svg width="86" height="95" viewBox="0 0 86 95" fill="none" xmlns="http://www.w3.org/2000/svg">
<path d="M79.3846 13.5714C81.1763 13.5714 82.7268 14.2429 84.0361 15.5859C85.3454 16.9289 86 18.5193 86 20.3571V88.2143C86 90.0521 85.3454 91.6425 84.0361 92.9855C82.7268 94.3285 81.1763 95 79.3846 95H6.61538C4.82372 95 3.27324 94.3285 1.96394 92.9855C0.654647 91.6425 0 90.0521 0 88.2143V20.3571C0 18.5193 0.654647 16.9289 1.96394 15.5859C3.27324 14.2429 4.82372 13.5714 6.61538 13.5714H13.2308V8.48214C13.2308 6.14955 14.0405 4.15272 15.6599 2.49163C17.2792 0.830543 19.226 0 21.5 0H24.8077C27.0817 0 29.0284 0.830543 30.6478 2.49163C32.2672 4.15272 33.0769 6.14955 33.0769 8.48214V13.5714H52.9231V8.48214C52.9231 6.14955 53.7328 4.15272 55.3522 2.49163C56.9716 0.830543 58.9183 0 61.1923 0H64.5C66.774 0 68.7208 0.830543 70.3401 2.49163C71.9595 4.15272 72.7692 6.14955 72.7692 8.48214V13.5714H79.3846ZM59.5385 8.48214V23.75C59.5385 24.2448 59.6935 24.6512 60.0036 24.9693C60.3137 25.2874 60.7099 25.4464 61.1923 25.4464H64.5C64.9824 25.4464 65.3786 25.2874 65.6887 24.9693C65.9988 24.6512 66.1538 24.2448 66.1538 23.75V8.48214C66.1538 7.98735 65.9988 7.58091 65.6887 7.26283C65.3786 6.94475 64.9824 6.78571 64.5 6.78571H61.1923C60.7099 6.78571 60.3137 6.94475 60.0036 7.26283C59.6935 7.58091 59.5385 7.98735 59.5385 8.48214ZM19.8462 8.48214V23.75C19.8462 24.2448 20.0012 24.6512 20.3113 24.9693C20.6214 25.2874 21.0176 25.4464 21.5 25.4464H24.8077C25.2901 25.4464 25.6863 25.2874 25.9964 24.9693C26.3065 24.6512 26.4615 24.2448 26.4615 23.75V8.48214C26.4615 7.98735 26.3065 7.58091 25.9964 7.26283C25.6863 6.94475 25.2901 6.78571 24.8077 6.78571H21.5C21.0176 6.78571 20.6214 6.94475 20.3113 7.26283C20.0012 7.58091 19.8462 7.98735 19.8462 8.48214ZM79.3846 88.2143V33.9286H6.61538V88.2143H79.3846ZM46.3077 57.6786H57.8846C58.367 57.6786 58.7632 57.8376 59.0733 58.1557C59.3834 58.4738 59.5385 58.8802 59.5385 59.375V62.7679C59.5385 63.2626 59.3834 63.6691 59.0733 63.9872C58.7632 64.3052 58.367 64.4643 57.8846 64.4643H46.3077V76.3393C46.3077 76.8341 46.1526 77.2405 45.8425 77.5586C45.5325 77.8767 45.1362 78.0357 44.6538 78.0357H41.3462C40.8638 78.0357 40.4675 77.8767 40.1575 77.5586C39.8474 77.2405 39.6923 76.8341 39.6923 76.3393V64.4643H28.1154C27.633 64.4643 27.2368 64.3052 26.9267 63.9872C26.6166 63.6691 26.4615 63.2626 26.4615 62.7679V59.375C26.4615 58.8802 26.6166 58.4738 26.9267 58.1557C27.2368 57.8376 27.633 57.6786 28.1154 57.6786H39.6923V45.8036C39.6923 45.3088 39.8474 44.9023 40.1575 44.5843C40.4675 44.2662 40.8638 44.1071 41.3462 44.1071H44.6538C45.1362 44.1071 45.5325 44.2662 45.8425 44.5843C46.1526 44.9023 46.3077 45.3088 46.3077 45.8036V57.6786Z" fill="#5F2302"/>
</svg>
