<svg width="844" height="320" viewBox="0 0 844 320" fill="none" xmlns="http://www.w3.org/2000/svg">
<path d="M85.4581 175.317V205.647C85.4581 208.33 85.3645 210.951 85.1772 213.51C85.0524 216.069 84.522 218.347 83.5859 220.344C82.7122 222.341 81.308 223.963 79.3734 225.211C77.4388 226.397 74.6617 226.99 71.0421 226.99C67.5473 226.99 64.8326 226.397 62.898 225.211C61.0258 223.963 59.6528 222.341 58.7792 220.344C57.9055 218.347 57.375 216.069 57.1878 213.51C57.063 210.951 57.0006 208.33 57.0006 205.647V117.279C57.0006 114.595 57.063 111.974 57.1878 109.416C57.375 106.857 57.9055 104.579 58.7792 102.582C59.6528 100.585 61.0258 98.9936 62.898 97.8079C64.8326 96.5597 67.5473 95.9357 71.0421 95.9357H101.933C109.672 96.3101 116.599 97.9327 122.715 100.803C125.336 102.052 127.863 103.612 130.297 105.484C132.794 107.356 135.009 109.665 136.944 112.411C138.941 115.095 140.532 118.309 141.718 122.053C142.904 125.735 143.496 130.01 143.496 134.878C143.496 141.555 142.435 147.421 140.314 152.476C138.254 157.469 135.227 161.681 131.233 165.114C127.302 168.484 122.465 171.042 116.724 172.79C111.045 174.475 104.617 175.317 97.4402 175.317H85.4581ZM98.189 153.038C101.309 152.851 104.118 152.102 106.614 150.791C107.675 150.23 108.705 149.512 109.703 148.638C110.702 147.765 111.607 146.704 112.418 145.455C113.229 144.145 113.853 142.616 114.29 140.869C114.789 139.121 115.039 137.124 115.039 134.878C115.039 132.756 114.789 130.915 114.29 129.355C113.853 127.732 113.26 126.359 112.511 125.236C111.763 124.05 110.92 123.051 109.984 122.24C109.048 121.429 108.081 120.742 107.082 120.181C104.711 118.995 102.058 118.277 99.1252 118.028H85.4581V153.038H98.189Z" fill="white"/>
<path d="M318.51 203.711C318.51 206.395 318.354 209.016 318.042 211.574C317.73 214.133 317.044 216.411 315.983 218.408C314.984 220.405 313.518 222.028 311.583 223.276C309.711 224.461 307.152 225.054 303.907 225.054C300.724 225.054 298.197 224.461 296.325 223.276C294.453 222.028 293.017 220.405 292.019 218.408C291.02 216.411 290.365 214.133 290.053 211.574C289.803 209.016 289.678 206.395 289.678 203.711V167.203C289.678 165.456 289.585 163.74 289.398 162.055C289.273 160.37 288.93 158.903 288.368 157.655C287.806 156.344 286.964 155.315 285.84 154.566C284.779 153.755 283.313 153.349 281.441 153.349C278.882 153.349 276.823 154.191 275.262 155.876C273.702 157.561 272.454 159.87 271.518 162.804C270.644 165.737 270.052 169.2 269.739 173.194C269.427 177.126 269.271 181.37 269.271 185.925V203.711C269.271 206.395 269.115 209.016 268.803 211.574C268.491 214.133 267.805 216.411 266.744 218.408C265.745 220.405 264.279 222.028 262.344 223.276C260.472 224.461 257.913 225.054 254.668 225.054C251.486 225.054 248.958 224.461 247.086 223.276C245.214 222.028 243.778 220.405 242.78 218.408C241.781 216.411 241.126 214.133 240.814 211.574C240.564 209.016 240.439 206.395 240.439 203.711V152.6C240.439 149.917 240.533 147.327 240.72 144.83C240.908 142.272 241.469 140.025 242.405 138.09C243.341 136.093 244.746 134.502 246.618 133.316C248.552 132.068 251.236 131.444 254.668 131.444C258.101 131.444 260.784 132.037 262.719 133.223C264.653 134.346 266.089 135.719 267.025 137.342C268.023 138.964 268.647 140.68 268.897 142.49C269.147 144.3 269.271 145.86 269.271 147.171C269.771 145.361 270.551 143.52 271.612 141.648C272.673 139.775 274.014 138.09 275.637 136.593C277.322 135.095 279.319 133.878 281.628 132.942C283.937 131.943 286.62 131.444 289.678 131.444C293.111 131.444 296.543 132.006 299.976 133.129C303.408 134.252 306.497 136.125 309.243 138.746C311.989 141.367 314.204 144.799 315.889 149.043C317.637 153.286 318.51 158.529 318.51 164.769V203.711Z" fill="white"/>
<path d="M416.988 171.696C416.988 172.695 416.926 173.881 416.801 175.254C416.676 176.564 416.177 177.844 415.303 179.092C414.492 180.277 413.181 181.307 411.372 182.181C409.562 183.055 407.003 183.491 403.696 183.491H366.439V192.478C366.439 193.976 366.626 195.536 367 197.158C367.375 198.781 367.999 200.279 368.873 201.652C369.809 203.025 371.026 204.148 372.523 205.022C374.021 205.895 375.862 206.332 378.046 206.332C380.543 206.332 382.446 206.051 383.757 205.49C385.13 204.866 386.19 204.117 386.939 203.243C387.751 202.369 388.468 201.433 389.092 200.435C389.716 199.436 390.528 198.5 391.526 197.627C392.587 196.753 394.023 196.035 395.832 195.473C397.705 194.849 400.263 194.537 403.508 194.537C405.069 194.537 406.566 194.662 408.002 194.912C409.499 195.161 410.81 195.629 411.933 196.316C413.057 197.002 413.962 197.97 414.648 199.218C415.334 200.404 415.678 201.964 415.678 203.898C415.678 207.955 414.398 211.356 411.84 214.102C409.281 216.785 406.067 218.938 402.198 220.561C398.329 222.184 394.116 223.338 389.56 224.025C385.067 224.711 380.855 225.054 376.923 225.054C371.743 224.992 366.813 224.337 362.133 223.088C357.452 221.84 353.302 219.843 349.683 217.097C346.125 214.352 343.286 210.763 341.164 206.332C339.042 201.901 337.981 196.472 337.981 190.044V168.139C337.981 162.211 338.668 157.187 340.041 153.068C341.476 148.949 343.317 145.517 345.564 142.771C347.81 140.025 350.338 137.903 353.146 136.405C355.954 134.845 358.794 133.691 361.665 132.942C364.535 132.193 367.25 131.725 369.809 131.538C372.43 131.35 374.676 131.257 376.549 131.257C382.852 131.257 388.219 131.819 392.65 132.942C397.143 134.065 400.887 135.532 403.883 137.342C406.878 139.151 409.25 141.242 410.997 143.613C412.745 145.985 414.055 148.45 414.929 151.009C415.803 153.505 416.364 156.064 416.614 158.685C416.863 161.243 416.988 163.646 416.988 165.893V171.696ZM366.439 169.45H389.841C389.841 166.517 389.748 163.927 389.56 161.68C389.436 159.371 388.968 157.437 388.156 155.876C387.407 154.316 386.19 153.13 384.506 152.319C382.883 151.508 380.543 151.102 377.485 151.102C374.926 151.102 372.898 151.508 371.4 152.319C369.965 153.13 368.873 154.16 368.124 155.408C367.375 156.594 366.907 157.873 366.72 159.246C366.532 160.619 366.439 161.836 366.439 162.897V169.45Z" fill="white"/>
<path d="M438.144 115.343C438.144 112.66 438.207 110.039 438.331 107.48C438.519 104.921 439.049 102.643 439.923 100.646C440.796 98.6493 442.169 97.0579 444.042 95.8722C445.976 94.6241 448.691 94 452.186 94H483.077C490.753 94.3744 497.618 95.997 503.671 98.8677C506.23 100.116 508.726 101.676 511.16 103.548C513.656 105.358 515.872 107.636 517.806 110.382C519.741 113.065 521.301 116.248 522.487 119.93C523.673 123.612 524.266 127.887 524.266 132.755C524.266 133.753 524.172 135.095 523.985 136.78C523.798 138.402 523.392 140.212 522.768 142.209C522.144 144.144 521.301 146.172 520.24 148.294C519.179 150.416 517.775 152.444 516.028 154.379C514.28 156.313 512.127 158.092 509.569 159.714C507.072 161.337 504.108 162.647 500.676 163.646C502.86 164.52 505.075 165.674 507.322 167.11C509.569 168.483 511.597 170.261 513.407 172.445C515.217 174.63 516.683 177.251 517.806 180.309C518.992 183.367 519.585 186.924 519.585 190.98V204.273C519.585 205.022 519.772 205.646 520.147 206.145C520.521 206.644 520.896 207.081 521.27 207.456C522.768 208.953 523.641 210.264 523.891 211.387C524.141 212.448 524.266 213.322 524.266 214.008C524.266 216.193 523.829 218.034 522.955 219.531C522.081 221.029 520.927 222.246 519.491 223.182C518.118 224.118 516.527 224.773 514.717 225.148C512.97 225.585 511.16 225.803 509.288 225.803C507.228 225.803 505.138 225.491 503.016 224.867C500.894 224.181 498.96 223.213 497.212 221.965C495.465 220.717 494.029 219.157 492.906 217.285C491.845 215.412 491.315 213.259 491.315 210.826V190.98C491.315 188.234 491.128 185.707 490.753 183.398C490.379 181.089 489.661 179.092 488.6 177.407C487.539 175.722 486.073 174.411 484.2 173.475C482.328 172.539 479.894 172.071 476.899 172.071H466.414V203.337C466.414 206.083 466.321 208.766 466.134 211.387C466.009 214.008 465.51 216.349 464.636 218.408C463.762 220.405 462.358 222.028 460.423 223.276C458.489 224.461 455.743 225.054 452.186 225.054C448.691 225.054 445.976 224.461 444.042 223.276C442.169 222.028 440.796 220.405 439.923 218.408C439.049 216.349 438.519 214.008 438.331 211.387C438.207 208.766 438.144 206.083 438.144 203.337V115.343ZM479.145 151.102C482.266 150.977 485.074 150.229 487.57 148.856C488.631 148.294 489.661 147.576 490.659 146.703C491.658 145.829 492.563 144.737 493.374 143.426C494.185 142.116 494.81 140.587 495.246 138.839C495.746 137.092 495.995 135.064 495.995 132.755C495.995 130.695 495.746 128.885 495.246 127.325C494.81 125.703 494.217 124.299 493.468 123.113C492.719 121.927 491.845 120.929 490.847 120.117C489.911 119.306 488.943 118.651 487.945 118.151C485.573 116.966 482.89 116.279 479.894 116.092H466.414V151.102H479.145Z" fill="white"/>
<path d="M619.374 171.696C619.374 172.695 619.311 173.881 619.187 175.254C619.062 176.564 618.563 177.844 617.689 179.092C616.878 180.277 615.567 181.307 613.757 182.181C611.947 183.055 609.389 183.491 606.081 183.491H568.824V192.478C568.824 193.976 569.011 195.536 569.386 197.158C569.76 198.781 570.384 200.279 571.258 201.652C572.194 203.025 573.411 204.148 574.909 205.022C576.407 205.895 578.248 206.332 580.432 206.332C582.928 206.332 584.832 206.051 586.142 205.49C587.515 204.866 588.576 204.117 589.325 203.243C590.136 202.369 590.854 201.433 591.478 200.435C592.102 199.436 592.913 198.5 593.912 197.627C594.973 196.753 596.408 196.035 598.218 195.473C600.09 194.849 602.649 194.537 605.894 194.537C607.454 194.537 608.952 194.662 610.387 194.912C611.885 195.161 613.196 195.629 614.319 196.316C615.442 197.002 616.347 197.97 617.034 199.218C617.72 200.404 618.063 201.964 618.063 203.898C618.063 207.955 616.784 211.356 614.225 214.102C611.667 216.785 608.453 218.938 604.583 220.561C600.714 222.184 596.502 223.338 591.946 224.025C587.453 224.711 583.24 225.054 579.309 225.054C574.129 224.992 569.199 224.337 564.518 223.088C559.838 221.84 555.688 219.843 552.068 217.097C548.511 214.352 545.671 210.763 543.549 206.332C541.428 201.901 540.367 196.472 540.367 190.044V168.139C540.367 162.211 541.053 157.187 542.426 153.068C543.861 148.949 545.702 145.517 547.949 142.771C550.196 140.025 552.723 137.903 555.532 136.405C558.34 134.845 561.179 133.691 564.05 132.942C566.921 132.193 569.635 131.725 572.194 131.538C574.815 131.35 577.062 131.257 578.934 131.257C585.237 131.257 590.604 131.819 595.035 132.942C599.528 134.065 603.273 135.532 606.268 137.342C609.264 139.151 611.635 141.242 613.383 143.613C615.13 145.985 616.441 148.45 617.314 151.009C618.188 153.505 618.75 156.064 618.999 158.685C619.249 161.243 619.374 163.646 619.374 165.893V171.696ZM568.824 169.45H592.227C592.227 166.517 592.133 163.927 591.946 161.68C591.821 159.371 591.353 157.437 590.542 155.876C589.793 154.316 588.576 153.13 586.891 152.319C585.269 151.508 582.928 151.102 579.87 151.102C577.312 151.102 575.283 151.508 573.786 152.319C572.35 153.13 571.258 154.16 570.509 155.408C569.76 156.594 569.292 157.873 569.105 159.246C568.918 160.619 568.824 161.836 568.824 162.897V169.45Z" fill="white"/>
<path d="M663.371 155.97C663.371 157.218 663.776 158.373 664.588 159.434C665.399 160.494 666.491 161.524 667.864 162.523C669.299 163.459 670.922 164.395 672.732 165.331C674.604 166.267 676.538 167.203 678.535 168.139C681.593 169.637 684.714 171.26 687.897 173.007C691.079 174.692 693.981 176.689 696.602 178.998C699.223 181.307 701.345 183.991 702.968 187.049C704.653 190.044 705.495 193.601 705.495 197.72C705.495 201.465 704.934 204.772 703.81 207.643C702.749 210.514 701.314 213.01 699.504 215.132C697.694 217.191 695.573 218.907 693.139 220.28C690.767 221.653 688.24 222.745 685.556 223.557C682.935 224.368 680.252 224.929 677.506 225.242C674.76 225.616 672.17 225.803 669.736 225.803C664.931 225.803 660.75 225.398 657.192 224.586C653.635 223.775 650.577 222.714 648.019 221.403C645.46 220.031 643.338 218.502 641.653 216.817C640.03 215.069 638.751 213.259 637.815 211.387C636.879 209.515 636.224 207.674 635.849 205.864C635.475 203.992 635.288 202.276 635.288 200.716C635.288 196.971 636.317 194.225 638.377 192.478C640.499 190.731 643.712 189.857 648.019 189.857C651.139 189.857 653.698 190.699 655.695 192.384C657.692 194.069 658.753 196.784 658.877 200.528C658.94 201.777 659.283 202.775 659.907 203.524C660.594 204.273 661.436 204.897 662.435 205.396C663.495 205.833 664.65 206.145 665.898 206.332C667.146 206.457 668.363 206.519 669.549 206.519C671.983 206.519 673.949 205.895 675.446 204.647C677.007 203.337 677.787 201.652 677.787 199.592C677.787 197.845 677.256 196.222 676.195 194.725C675.197 193.164 673.855 191.729 672.17 190.419C670.485 189.108 668.55 187.86 666.366 186.674C664.244 185.426 662.06 184.178 659.813 182.93C657.005 181.432 654.166 179.841 651.295 178.156C648.487 176.471 645.928 174.598 643.619 172.539C641.31 170.48 639.438 168.17 638.002 165.612C636.567 162.991 635.849 160.026 635.849 156.719C635.849 151.851 636.629 147.795 638.189 144.55C639.812 141.242 642.152 138.59 645.21 136.593C648.268 134.533 651.981 133.067 656.35 132.193C660.781 131.319 665.804 130.82 671.421 130.695H672.919C677.974 130.695 682.249 131.132 685.743 132.006C689.301 132.879 692.234 134.034 694.543 135.469C696.914 136.842 698.755 138.402 700.066 140.15C701.439 141.897 702.437 143.676 703.061 145.486C703.748 147.233 704.153 148.918 704.278 150.541C704.466 152.163 704.559 153.536 704.559 154.659C704.559 156.532 704.153 158.092 703.342 159.34C702.593 160.526 701.564 161.493 700.253 162.242C699.005 162.928 697.57 163.428 695.947 163.74C694.324 163.989 692.639 164.145 690.892 164.208C689.394 164.208 688.021 163.958 686.773 163.459C685.587 162.96 684.558 162.335 683.684 161.587C682.81 160.838 682.124 159.995 681.625 159.059C681.188 158.123 680.969 157.218 680.969 156.344C680.845 153.973 679.877 152.163 678.067 150.915C676.32 149.667 674.167 149.043 671.608 149.043C670.547 149.043 669.518 149.168 668.519 149.417C667.583 149.604 666.709 149.979 665.898 150.541C665.149 151.04 664.525 151.726 664.026 152.6C663.589 153.474 663.371 154.597 663.371 155.97Z" fill="white"/>
<path d="M736.574 131.444V114.969C736.574 112.348 736.699 109.789 736.948 107.293C737.26 104.796 737.916 102.581 738.914 100.646C739.913 98.6493 741.348 97.0579 743.22 95.8722C745.092 94.6241 747.62 94 750.803 94C753.923 94 756.419 94.6241 758.291 95.8722C760.164 97.0579 761.568 98.6493 762.504 100.646C763.502 102.581 764.126 104.796 764.376 107.293C764.688 109.789 764.844 112.348 764.844 114.969V131.444H772.52C774.143 131.444 775.765 131.538 777.388 131.725C779.01 131.85 780.446 132.287 781.694 133.035C783.004 133.784 784.034 134.908 784.783 136.405C785.594 137.903 786 139.994 786 142.677C786 145.236 785.594 147.264 784.783 148.762C784.034 150.26 783.004 151.383 781.694 152.132C780.446 152.881 779.01 153.38 777.388 153.63C775.765 153.817 774.143 153.911 772.52 153.911H764.844V186.674C764.844 187.922 764.875 189.264 764.938 190.699C765.063 192.072 765.406 193.352 765.967 194.537C766.529 195.723 767.372 196.722 768.495 197.533C769.618 198.282 771.21 198.656 773.269 198.656C775.516 198.656 777.419 198.843 778.979 199.218C780.602 199.53 781.912 200.123 782.911 200.996C783.972 201.87 784.752 203.087 785.251 204.647C785.75 206.207 786 208.204 786 210.638C786 213.135 785.407 215.288 784.221 217.097C783.098 218.907 781.569 220.405 779.635 221.591C777.7 222.776 775.453 223.65 772.895 224.212C770.336 224.773 767.652 225.054 764.844 225.054C760.413 225.054 756.606 224.586 753.424 223.65C750.303 222.714 747.682 221.403 745.56 219.719C743.501 217.971 741.847 215.912 740.599 213.54C739.413 211.106 738.508 208.392 737.884 205.396C737.323 202.401 736.948 199.187 736.761 195.754C736.636 192.26 736.574 188.609 736.574 184.802V153.911H731.332C729.709 153.911 728.086 153.817 726.464 153.63C724.904 153.38 723.5 152.881 722.251 152.132C721.003 151.383 719.974 150.26 719.162 148.762C718.413 147.264 718.039 145.236 718.039 142.677C718.039 139.994 718.413 137.903 719.162 136.405C719.974 134.908 721.003 133.784 722.251 133.035C723.5 132.287 724.904 131.85 726.464 131.725C728.086 131.538 729.709 131.444 731.332 131.444H736.574Z" fill="white"/>
<path d="M169.623 149.305L176.837 138.689C176.856 138.66 176.889 138.644 176.924 138.645L188.887 139.136C188.93 139.138 188.969 139.112 188.985 139.072L190.428 135.28C190.45 135.222 190.519 135.198 190.573 135.229L202.265 142.104C202.279 142.113 202.292 142.125 202.3 142.14L207.22 150.465C207.268 150.547 207.184 150.644 207.096 150.608L200.258 147.812C200.185 147.782 200.107 147.844 200.12 147.922C200.298 149.003 200.504 151.247 200.089 152.871C199.651 154.583 209.602 165.277 214.711 170.492C214.754 170.536 214.745 170.606 214.695 170.642L208.824 174.819C208.78 174.85 208.769 174.911 208.799 174.956L210.943 178.184L218.051 188.035C218.107 188.112 218.033 188.217 217.941 188.189L211.44 186.193C211.356 186.168 211.282 186.255 211.321 186.333L214.241 192.247L221.891 208.037C221.915 208.088 221.894 208.148 221.843 208.172L210.44 213.402C210.411 213.415 210.377 213.414 210.349 213.398L200.884 208.025C200.828 207.994 200.758 208.022 200.739 208.083L198.889 214.13C198.87 214.192 198.799 214.22 198.743 214.187L191.053 209.717C190.982 209.676 190.895 209.733 190.903 209.814L192.658 226.552C192.664 226.609 192.619 226.66 192.561 226.662L181.383 226.986C181.321 226.988 181.273 226.934 181.281 226.872L183.987 207.65C183.998 207.571 183.918 207.512 183.846 207.545L170.235 213.873C170.182 213.898 170.118 213.871 170.099 213.815L167.278 205.728C167.262 205.682 167.214 205.654 167.166 205.662L154.397 207.928C154.315 207.943 154.253 207.857 154.291 207.783L165.114 187.095C165.148 187.03 165.102 186.951 165.028 186.949L157.802 186.791C157.726 186.789 157.68 186.706 157.719 186.64L171.051 164.034C171.077 163.989 171.066 163.933 171.025 163.902L167.593 161.359C167.553 161.33 167.541 161.277 167.563 161.234L174.28 147.969C174.321 147.888 174.241 147.799 174.156 147.83L169.741 149.455C169.649 149.489 169.569 149.385 169.623 149.305Z" fill="white" stroke="white"/>
<path d="M172.175 122.747C177.92 115.334 188.856 100.391 188.093 98.0471C188.087 98.0294 188.08 98.0118 188.073 97.9941C188.081 98.011 188.087 98.0287 188.093 98.0471C191.132 106.016 198.351 121.773 203.663 123.133C203.766 123.159 203.779 123.324 203.679 123.36L200.383 124.514C200.354 124.525 200.322 124.521 200.296 124.505L188.631 117.129C188.577 117.095 188.505 117.12 188.483 117.181L187.116 121.132C187.103 121.168 187.071 121.194 187.033 121.199L172.269 122.904C172.181 122.914 172.121 122.817 172.175 122.747Z" fill="white"/>
<path d="M188.073 97.9941C189.028 100.155 177.965 115.276 172.175 122.747C172.121 122.817 172.181 122.914 172.269 122.904L187.033 121.199C187.071 121.194 187.103 121.168 187.116 121.132L188.483 117.181C188.505 117.12 188.577 117.095 188.631 117.129L200.296 124.505C200.322 124.521 200.354 124.525 200.383 124.514L203.679 123.36C203.779 123.324 203.766 123.159 203.663 123.133C198.339 121.77 191.1 105.946 188.073 97.9941Z" stroke="white"/>
</svg>
